<!-- Generated by IcoMoon.io -->
<svg xmlns="http://www.w3.org/2000/svg" width="32" height="32" viewBox="0 0 32 32">
<title>audio-channel</title>
<path d="M15.844 4.101c-0.499-0.205-1.072-0.092-1.453 0.289l-5.724 6.275h-4c-0.733 0-1.333 0.601-1.333 1.333v8c0 0.733 0.6 1.333 1.333 1.333h4l5.724 6.277c0.381 0.381 0.955 0.496 1.453 0.289s0.823-0.693 0.823-1.233v-21.333c0-0.537-0.324-1.027-0.823-1.231zM19.333 6.665v2.667c3.676 0 6.667 2.992 6.667 6.667 0 3.676-2.991 6.667-6.667 6.667v2.667c5.147 0 9.333-4.185 9.333-9.333 0-5.145-4.187-9.333-9.333-9.333zM19.333 11.998c2.205 0 4 1.796 4 4 0 2.207-1.795 4-4 4v-2.667c0.735 0 1.333-0.599 1.333-1.333s-0.599-1.333-1.333-1.333v-2.667z"></path>
</svg>
