<!-- Generated by IcoMoon.io -->
<svg xmlns="http://www.w3.org/2000/svg" width="32" height="32" viewBox="0 0 32 32">
<title>deafen</title>
<path d="M16 0.941c-8.303 0-15.059 6.754-15.059 15.059v12.047c0 1.663 1.348 3.012 3.012 3.012h3.012c1.662 0 3.012-1.349 3.012-3.012v-4.518c0-1.663-1.349-3.012-3.012-3.012h-3.012v-4.518c0-6.644 5.405-12.047 12.047-12.047s12.047 5.403 12.047 12.047v4.518h-3.012c-1.663 0-3.012 1.349-3.012 3.012v4.518c0 1.663 1.349 3.012 3.012 3.012h3.012c1.663 0 3.012-1.349 3.012-3.012v-12.047c0-8.305-6.755-15.059-15.059-15.059z"></path>
</svg>
