<!-- Generated by IcoMoon.io -->
<svg xmlns="http://www.w3.org/2000/svg" width="32" height="32" viewBox="0 0 32 32">
<title>help</title>
<path d="M16 0.762c-8.402 0-15.238 6.837-15.238 15.238 0 8.404 6.836 15.238 15.238 15.238s15.238-6.834 15.238-15.238c0-8.401-6.836-15.238-15.238-15.238zM16 25.524c-1.051 0-1.905-0.852-1.905-1.905 0-1.051 0.853-1.905 1.905-1.905s1.905 0.853 1.905 1.905c0 1.053-0.853 1.905-1.905 1.905zM17.524 18.857v1.714h-3.048v-4.571h1.524c1.682 0 3.048-1.367 3.048-3.048 0-1.682-1.365-3.048-3.048-3.048s-3.048 1.365-3.048 3.048h-3.048c0-3.36 2.735-6.095 6.095-6.095s6.095 2.735 6.095 6.095c0 2.836-1.946 5.225-4.571 5.905z"></path>
</svg>
