<!-- Generated by IcoMoon.io -->
<svg xmlns="http://www.w3.org/2000/svg" width="32" height="32" viewBox="0 0 32 32">
<title>level-boost</title>
<path d="M16.854 1.642c-0.495-0.412-1.213-0.412-1.707 0l-8 6.667c-0.304 0.253-0.48 0.629-0.48 1.024v13.333c0 0.396 0.176 0.771 0.48 1.024l8 6.667c0.495 0.412 1.213 0.412 1.707 0l8-6.667c0.304-0.253 0.48-0.629 0.48-1.024v-13.333c0-0.396-0.176-0.771-0.48-1.024l-8-6.667zM9.333 22.042v-12.084l6.667-5.556 6.667 5.556v12.084l-6.667 5.556-6.667-5.556zM20.901 10.684l-4-3.667c-0.51-0.467-1.292-0.467-1.802 0l-4 3.667c-0.275 0.253-0.432 0.609-0.432 0.983v8.667c0 0.374 0.157 0.73 0.432 0.983l4 3.667c0.51 0.467 1.292 0.467 1.802 0l4-3.667c0.276-0.253 0.432-0.609 0.432-0.983v-8.667c0-0.374-0.157-0.73-0.432-0.983zM13.333 19.747v-7.494l2.667-2.444 2.667 2.444v7.494l-2.667 2.444-2.667-2.444z"></path>
</svg>
