<!-- Generated by IcoMoon.io -->
<svg xmlns="http://www.w3.org/2000/svg" width="32" height="32" viewBox="0 0 32 32">
<title>logo</title>
<path d="M26.64 7.599c-2.24-1.787-5.44-2.28-6.827-2.427h-0.053c-0.213 0-0.413 0.12-0.48 0.32-0.12 0.307 0.067 0.64 0.373 0.693 1.56 0.32 3.36 0.88 5 1.907 0.333 0.2 0.413 0.653 0.147 0.96-0.213 0.24-0.573 0.267-0.853 0.107-3.2-1.973-7.173-2.080-7.947-2.080s-4.747 0.107-7.947 2.080c-0.28 0.16-0.64 0.133-0.853-0.107-0.267-0.307-0.187-0.76 0.147-0.96 1.64-1.027 3.44-1.587 5-1.907 0.307-0.053 0.493-0.387 0.373-0.693-0.067-0.2-0.267-0.32-0.48-0.32h-0.053c-1.387 0.147-4.587 0.64-6.827 2.427-1.307 1.213-3.907 8.187-4.027 14.36 0 0.413 0.107 0.827 0.347 1.16 1.56 2.2 4.947 3.52 7.507 3.707 0.387 0.027 0.76-0.147 0.987-0.467 0.013 0 0.013-0.013 0.027-0.027 0.467-0.64 0.187-1.547-0.56-1.827-2.133-0.787-3.227-1.72-3.293-1.787-0.267-0.24-0.293-0.64-0.067-0.907 0.24-0.267 0.64-0.293 0.907-0.053 0.040 0.027 3 2.547 8.813 2.547s8.773-2.52 8.813-2.547c0.267-0.24 0.667-0.213 0.907 0.053 0.227 0.267 0.2 0.667-0.067 0.907-0.067 0.067-1.16 1-3.293 1.787-0.747 0.28-1.027 1.187-0.56 1.827 0.013 0.013 0.013 0.027 0.027 0.027 0.227 0.32 0.6 0.493 0.987 0.467 2.56-0.187 5.947-1.507 7.507-3.707 0.24-0.333 0.347-0.747 0.347-1.16-0.12-6.173-2.72-13.147-4.027-14.36zM11.853 19.839c-1.227 0-2.227-1.147-2.227-2.547 0-1.413 1-2.56 2.227-2.56 1.24 0 2.227 1.147 2.227 2.56 0 1.4-0.987 2.547-2.227 2.547zM20.147 19.839c-1.24 0-2.227-1.147-2.227-2.547 0-1.413 0.987-2.56 2.227-2.56 1.227 0 2.227 1.147 2.227 2.56 0 1.4-1 2.547-2.227 2.547z"></path>
</svg>
