<!-- Generated by IcoMoon.io -->
<svg xmlns="http://www.w3.org/2000/svg" width="27" height="32" viewBox="0 0 27 32">
<title>pen</title>
<path d="M6.487 27.241l1.625-1.625-4.196-4.196-1.625 1.625v1.911h2.286v2.286h1.911zM15.826 10.67c0-0.232-0.161-0.393-0.393-0.393-0.107 0-0.214 0.036-0.304 0.125l-9.679 9.679c-0.089 0.089-0.125 0.196-0.125 0.304 0 0.232 0.161 0.393 0.393 0.393 0.107 0 0.214-0.036 0.304-0.125l9.679-9.679c0.089-0.089 0.125-0.196 0.125-0.304zM14.862 7.241l7.429 7.429-14.857 14.857h-7.429v-7.429zM27.058 8.955c0 0.607-0.25 1.196-0.661 1.607l-2.964 2.964-7.429-7.429 2.964-2.946c0.411-0.429 1-0.679 1.607-0.679s1.196 0.25 1.625 0.679l4.196 4.179c0.411 0.429 0.661 1.018 0.661 1.625z"></path>
</svg>
