<!-- Generated by IcoMoon.io -->
<svg xmlns="http://www.w3.org/2000/svg" width="32" height="32" viewBox="0 0 32 32">
<title>search</title>
<path d="M8.321 13.444c0-2.835 2.288-5.123 5.123-5.123s5.123 2.288 5.123 5.123c0 2.835-2.288 5.123-5.123 5.123s-5.123-2.288-5.123-5.123zM20.275 18.567h-0.899l-0.319-0.307c1.116-1.298 1.787-2.983 1.787-4.816 0-4.087-3.313-7.4-7.4-7.4s-7.4 3.313-7.4 7.4c0 4.087 3.313 7.4 7.4 7.4 1.833 0 3.518-0.672 4.816-1.787l0.307 0.319v0.899l5.692 5.681 1.696-1.696-5.681-5.692z"></path>
</svg>
