<!-- Generated by IcoMoon.io -->
<svg xmlns="http://www.w3.org/2000/svg" width="32" height="32" viewBox="0 0 32 32">
<title>settings</title>
<path d="M27.652 12.988h3.406v6.024h-3.405c-0.363 1.402-0.962 2.708-1.768 3.861l2.161 2.162-3.012 3.012-2.161-2.162c-1.157 0.806-2.459 1.407-3.863 1.768v3.406h-6.024v-3.406c-1.402-0.361-2.706-0.962-3.861-1.768l-2.162 2.162-3.012-3.012 2.162-2.162c-0.806-1.152-1.407-2.458-1.768-3.861h-3.406v-6.024h3.406c0.361-1.403 0.961-2.708 1.768-3.861l-2.162-2.162 3.012-3.012 2.162 2.162c1.153-0.807 2.458-1.407 3.861-1.768v-3.406h6.024v3.405c1.403 0.363 2.706 0.962 3.863 1.768l2.161-2.162 3.012 3.012-2.162 2.164c0.806 1.153 1.407 2.459 1.768 3.861zM16 22.024c3.327 0 6.024-2.697 6.024-6.024s-2.697-6.024-6.024-6.024c-3.327 0-6.024 2.697-6.024 6.024s2.697 6.024 6.024 6.024z"></path>
</svg>
