<!-- Generated by IcoMoon.io -->
<svg version="1.1" xmlns="http://www.w3.org/2000/svg" width="32" height="32" viewBox="0 0 32 32">
<title>smiley-face</title>
<path fill="#cfcfcf" d="M16 32c8.837 0 16-7.163 16-16s-7.163-16-16-16c-8.837 0-16 7.163-16 16s7.163 16 16 16z"></path>
<path fill="#4f5660" d="M9.347 20.996c0.040 0.159 1.038 3.892 6.653 3.892s6.613-3.733 6.653-3.892c0.049-0.193-0.038-0.393-0.211-0.492-0.173-0.099-0.39-0.069-0.533 0.068-0.017 0.017-1.737 1.65-5.909 1.65s-5.893-1.633-5.909-1.649c-0.085-0.084-0.199-0.129-0.313-0.129-0.075 0-0.15 0.019-0.219 0.057-0.174 0.099-0.261 0.301-0.212 0.495z"></path>
<path fill="#4f5660" d="M10.667 15.111c1.227 0 2.222-1.393 2.222-3.111s-0.995-3.111-2.222-3.111c-1.227 0-2.222 1.393-2.222 3.111s0.995 3.111 2.222 3.111z"></path>
<path fill="#4f5660" d="M21.333 15.111c1.227 0 2.222-1.393 2.222-3.111s-0.995-3.111-2.222-3.111c-1.227 0-2.222 1.393-2.222 3.111s0.995 3.111 2.222 3.111z"></path>
</svg>
