<!-- Generated by IcoMoon.io -->
<svg xmlns="http://www.w3.org/2000/svg" width="32" height="32" viewBox="0 0 32 32">
<title>text-channel</title>
<path d="M8.009 28c-0.415 0-0.729-0.375-0.656-0.783l0.808-4.55h-4.54c-0.414 0-0.728-0.374-0.657-0.782l0.233-1.333c0.056-0.319 0.333-0.552 0.657-0.552h4.773l1.413-8h-4.54c-0.414 0-0.728-0.374-0.657-0.782l0.233-1.333c0.056-0.319 0.333-0.552 0.657-0.552h4.773l0.849-4.783c0.056-0.318 0.333-0.55 0.656-0.55h1.313c0.415 0 0.729 0.375 0.656 0.783l-0.808 4.55h8l0.849-4.783c0.056-0.318 0.333-0.55 0.656-0.55h1.312c0.415 0 0.729 0.375 0.656 0.783l-0.808 4.55h4.54c0.414 0 0.728 0.374 0.657 0.782l-0.233 1.333c-0.056 0.319-0.333 0.552-0.657 0.552h-4.773l-1.413 8h4.54c0.414 0 0.728 0.374 0.657 0.782l-0.233 1.333c-0.056 0.319-0.333 0.552-0.657 0.552h-4.773l-0.849 4.783c-0.056 0.318-0.333 0.55-0.656 0.55h-1.312c-0.415 0-0.729-0.375-0.656-0.783l0.808-4.55h-8l-0.849 4.783c-0.056 0.318-0.333 0.55-0.656 0.55h-1.313zM12.707 12l-1.413 8h8l1.413-8h-8z"></path>
</svg>
