<svg xmlns="http://www.w3.org/2000/svg" width="32" height="32" viewBox="0 0 32 32">
<title>two-persons</title>
<path d="M18.667 10.675c0 2.94-2.392 5.333-5.333 5.333-2.94 0-5.333-2.393-5.333-5.333s2.392-5.333 5.333-5.333c2.941 0 5.333 2.393 5.333 5.333zM2.667 25.341c0-4.711 4.387-8 10.667-8 6.281 0 10.667 3.289 10.667 8v1.333h-21.333v-1.333z"></path>
<path d="M26.667 26.675h2.667v-1.333c0-3.417-2.307-6.086-5.972-7.294 2.054 1.837 3.305 4.361 3.305 7.294v1.333z"></path>
<path d="M19.845 15.877c2.376-0.538 4.156-2.667 4.156-5.202 0-2.716-2.041-4.965-4.671-5.292 1.247 1.411 2.004 3.265 2.004 5.292 0 1.924-0.682 3.691-1.816 5.072 0.11 0.042 0.219 0.085 0.327 0.13z"></path>
</svg>
